# xmcd
#
# Track frame offsets:
#	150
#	27642
#	59582
#	99049
#	126583
#	173410
#	194645
#	225749
#	229209
#
# Disc length: 3413 seconds
#
# Revision: 1
# Processed by: cddbd v1.5.2PL0 Copyright (c) Steve Scherf et al.
# Submitted via: audiograbber 1.83.01
#
DISCID=7a0d5309
DTITLE=Bob Dylan - Damm Amsterdam, The Levee´s Gonna Break!   CD2
DYEAR=2009
DGENRE=Folk Rock
TTITLE0=Just Like A Women
TTITLE1=Highweay 61 Revisited
TTITLE2=Nettie Moore
TTITLE3=Thunder On The Moutain
TTITLE4=Like A Rolling Stone
TTITLE5=All Along The Watchtower
TTITLE6=Spirit On The Water
TTITLE7=Band Intruction
TTITLE8=Blowin´ In The Wind
EXTD=
EXTT0=
EXTT1=
EXTT2=
EXTT3=
EXTT4=
EXTT5=
EXTT6=
EXTT7=
EXTT8=
PLAYORDER=
